# xmcd CD database file
#
# Track frame offsets:
#	150
#	23498
#	45050
#	76802
#	81971
#	105800
#	135681
#	167628
#	191179
#	220514
#	241728
#
# Disc length: 3725 seconds
#
# Revision: 0
# Processed by: cddbd v1.5.1PL2 Copyright (c) Steve Scherf et al.
# Submitted via: CDex 1.51
#
DISCID=730e8b0b
DTITLE=Elemer Balazs Group - Our Worlds Beyond
DYEAR=2003
DGENRE=Jazz
TTITLE0=Elemer Balazs Group - Tales Of The woods
TTITLE1=Elemer Balazs Group - Together Alone
TTITLE2=Elemer Balazs Group - Bangalore
TTITLE3=Elemer Balazs Group - Intro
TTITLE4=Elemer Balazs Group - Sadness
TTITLE5=Elemer Balazs Group - Midwest
TTITLE6=Elemer Balazs Group - 75th Cross
TTITLE7=Elemer Balazs Group - Dance With The Wind
TTITLE8=Elemer Balazs Group - Sweet And Bitter
TTITLE9=Elemer Balazs Group - Hungarian Folk Song
TTITLE10=Elemer Balazs Group - My Favorite Things
EXTD=YEAR: 2003
EXTT0=
EXTT1=
EXTT2=
EXTT3=
EXTT4=
EXTT5=
EXTT6=
EXTT7=
EXTT8=
EXTT9=
EXTT10=
PLAYORDER=
